<svg xmlns="http://www.w3.org/2000/svg" xmlns:xlink="http://www.w3.org/1999/xlink" width="40" zoomAndPan="magnify" viewBox="0 0 30 30.000001" height="40" preserveAspectRatio="xMidYMid meet" version="1.0"><defs><g/><clipPath id="9584fb42e4"><path d="M 0.484375 0 L 29.066406 0 L 29.066406 29.03125 L 0.484375 29.03125 Z M 0.484375 0 " clip-rule="nonzero"/></clipPath><clipPath id="d084501b2b"><path d="M 14.550781 0 C 6.535156 0 0.0351562 6.5 0.0351562 14.515625 C 0.0351562 22.53125 6.535156 29.03125 14.550781 29.03125 C 22.570312 29.03125 29.066406 22.53125 29.066406 14.515625 C 29.066406 6.5 22.570312 0 14.550781 0 Z M 14.550781 0 " clip-rule="nonzero"/></clipPath></defs><g clip-path="url(#9584fb42e4)"><g clip-path="url(#d084501b2b)"><path fill="#fffcef" d="M 0.0351562 0 L 29.066406 0 L 29.066406 29.03125 L 0.0351562 29.03125 Z M 0.0351562 0 " fill-opacity="1" fill-rule="nonzero"/></g></g><g fill="#000000" fill-opacity="1"><g transform="translate(7.069333, 21.353885)"><g><path d="M 15.3125 -3.328125 C 15.3125 -3.304688 15.304688 -3.28125 15.296875 -3.25 C 15.296875 -3.226562 15.285156 -3.195312 15.265625 -3.15625 L 14.296875 0 L 0.9375 0 C 0.695312 0 0.523438 -0.00390625 0.421875 -0.015625 C 0.328125 -0.0351562 0.28125 -0.0625 0.28125 -0.09375 C 0.28125 -0.113281 0.363281 -0.15625 0.53125 -0.21875 C 0.707031 -0.28125 0.832031 -0.347656 0.90625 -0.421875 C 1.101562 -0.578125 1.265625 -0.738281 1.390625 -0.90625 C 1.515625 -1.070312 1.613281 -1.273438 1.6875 -1.515625 C 1.757812 -1.765625 1.804688 -2.0625 1.828125 -2.40625 C 1.847656 -2.75 1.859375 -3.164062 1.859375 -3.65625 L 1.859375 -11.125 C 1.859375 -11.84375 1.804688 -12.421875 1.703125 -12.859375 C 1.609375 -13.304688 1.34375 -13.59375 0.90625 -13.71875 C 0.832031 -13.738281 0.75 -13.765625 0.65625 -13.796875 C 0.570312 -13.835938 0.53125 -13.875 0.53125 -13.90625 C 0.53125 -13.945312 0.554688 -13.976562 0.609375 -14 C 0.671875 -14.03125 0.78125 -14.046875 0.9375 -14.046875 L 13.34375 -14.046875 L 13.9375 -11.984375 C 13.957031 -11.859375 13.992188 -11.722656 14.046875 -11.578125 C 14.097656 -11.429688 14.125 -11.296875 14.125 -11.171875 C 14.125 -11.046875 14.085938 -10.984375 14.015625 -10.984375 C 13.910156 -10.984375 13.820312 -11.050781 13.75 -11.1875 C 13.519531 -11.570312 13.207031 -11.90625 12.8125 -12.1875 C 12.425781 -12.46875 11.992188 -12.707031 11.515625 -12.90625 C 11.046875 -13.101562 10.546875 -13.25 10.015625 -13.34375 C 9.484375 -13.4375 8.960938 -13.484375 8.453125 -13.484375 L 4.40625 -13.484375 L 4.40625 -7.671875 L 8.46875 -7.671875 C 8.863281 -7.671875 9.242188 -7.710938 9.609375 -7.796875 C 9.972656 -7.890625 10.304688 -8.007812 10.609375 -8.15625 C 10.910156 -8.300781 11.160156 -8.476562 11.359375 -8.6875 C 11.566406 -8.894531 11.707031 -9.109375 11.78125 -9.328125 C 11.820312 -9.453125 11.878906 -9.515625 11.953125 -9.515625 C 12.015625 -9.515625 12.046875 -9.40625 12.046875 -9.1875 L 12.046875 -5.578125 C 12.046875 -5.378906 12.035156 -5.25 12.015625 -5.1875 C 12.003906 -5.132812 11.984375 -5.109375 11.953125 -5.109375 C 11.910156 -5.109375 11.878906 -5.140625 11.859375 -5.203125 C 11.835938 -5.273438 11.8125 -5.347656 11.78125 -5.421875 C 11.625 -5.828125 11.398438 -6.144531 11.109375 -6.375 C 10.828125 -6.601562 10.503906 -6.769531 10.140625 -6.875 C 9.773438 -6.988281 9.390625 -7.054688 8.984375 -7.078125 C 8.578125 -7.109375 8.1875 -7.125 7.8125 -7.125 L 4.40625 -7.125 L 4.40625 -2.5 C 4.40625 -1.695312 4.554688 -1.171875 4.859375 -0.921875 C 5.171875 -0.671875 5.703125 -0.546875 6.453125 -0.546875 L 8.921875 -0.546875 C 9.390625 -0.546875 9.882812 -0.609375 10.40625 -0.734375 C 10.925781 -0.859375 11.441406 -1.023438 11.953125 -1.234375 C 12.460938 -1.453125 12.953125 -1.707031 13.421875 -2 C 13.890625 -2.289062 14.300781 -2.601562 14.65625 -2.9375 C 14.789062 -3.050781 14.914062 -3.15625 15.03125 -3.25 C 15.144531 -3.351562 15.21875 -3.40625 15.25 -3.40625 C 15.289062 -3.40625 15.3125 -3.378906 15.3125 -3.328125 Z M 15.3125 -3.328125 "/></g></g></g></svg>