<svg xmlns="http://www.w3.org/2000/svg" width="32" height="32" viewBox="0 0 30 30">
  <defs>
    <clipPath id="a">
      <path d="M.484 0h28.582v29.031H.484Z"/>
    </clipPath>
    <clipPath id="b">
      <path d="M14.55 0C6.536 0 .036 6.5.036 14.516s6.5 14.515 14.516 14.515c8.02 0 14.515-6.5 14.515-14.515S22.57 0 14.551 0"/>
    </clipPath>
  </defs>
  <g clip-path="url(#a)">
    <g clip-path="url(#b)">
      <path fill="#fffcef" d="M.035 0h29.031v29.031H.036Z"/>
    </g>
  </g>
  <path d="M22.382 18.026c0 .023-.008.047-.016.078a.2.2 0 0 1-.031.094l-.969 3.156H8.006q-.362.001-.515-.016-.14-.03-.14-.078-.001-.03.25-.125.262-.093.375-.203.294-.233.484-.484.187-.246.297-.61.105-.375.14-.89c.02-.344.032-.758.032-1.25v-7.47q-.002-1.077-.157-1.733-.14-.67-.796-.86-.112-.03-.25-.078c-.086-.04-.125-.078-.125-.11 0-.038.023-.07.078-.093q.093-.047.328-.047h12.406l.594 2.063q.029.188.11.406.076.22.077.406c0 .125-.039.188-.109.188q-.16 0-.266-.204a3.35 3.35 0 0 0-.937-1 6.4 6.4 0 0 0-1.297-.718 7 7 0 0 0-1.5-.438 9 9 0 0 0-1.563-.14h-4.046v5.812h4.062q.592.001 1.14-.125a5.3 5.3 0 0 0 1-.36q.451-.216.75-.53.311-.312.423-.641.06-.188.171-.188.094 0 .094.328v3.61q-.001.298-.031.39-.017.08-.063.079-.065 0-.093-.094c-.024-.07-.047-.145-.078-.219a2.2 2.2 0 0 0-.672-.953 2.8 2.8 0 0 0-.969-.5 4.8 4.8 0 0 0-1.156-.203 15 15 0 0 0-1.172-.047h-3.406v4.625c0 .805.148 1.328.453 1.578q.468.375 1.593.375h2.47q.7 0 1.484-.187a10.5 10.5 0 0 0 1.546-.5q.764-.328 1.47-.766a7.6 7.6 0 0 0 1.234-.938q.198-.17.375-.312.17-.154.218-.156.061 0 .063.078"/>
</svg>