<svg xmlns="http://www.w3.org/2000/svg" xmlns:xlink="http://www.w3.org/1999/xlink" width="250" zoomAndPan="magnify" viewBox="0 0 187.5 30.000001" height="40" preserveAspectRatio="xMidYMid meet" version="1.0"><defs><g/></defs><g fill="#000000" fill-opacity="1"><g transform="translate(49.415319, 19.82931)"><g><path d="M 13.5625 -2.953125 C 13.5625 -2.929688 13.554688 -2.910156 13.546875 -2.890625 C 13.546875 -2.867188 13.539062 -2.835938 13.53125 -2.796875 L 12.671875 0 L 0.828125 0 C 0.609375 0 0.457031 -0.00390625 0.375 -0.015625 C 0.289062 -0.0234375 0.25 -0.046875 0.25 -0.078125 C 0.25 -0.0976562 0.320312 -0.132812 0.46875 -0.1875 C 0.625 -0.238281 0.734375 -0.300781 0.796875 -0.375 C 0.972656 -0.507812 1.117188 -0.648438 1.234375 -0.796875 C 1.347656 -0.953125 1.4375 -1.132812 1.5 -1.34375 C 1.5625 -1.5625 1.601562 -1.820312 1.625 -2.125 C 1.644531 -2.425781 1.65625 -2.800781 1.65625 -3.25 L 1.65625 -9.859375 C 1.65625 -10.492188 1.609375 -11.007812 1.515625 -11.40625 C 1.421875 -11.800781 1.179688 -12.050781 0.796875 -12.15625 C 0.734375 -12.175781 0.660156 -12.203125 0.578125 -12.234375 C 0.503906 -12.265625 0.46875 -12.296875 0.46875 -12.328125 C 0.46875 -12.359375 0.492188 -12.382812 0.546875 -12.40625 C 0.597656 -12.425781 0.691406 -12.4375 0.828125 -12.4375 L 11.8125 -12.4375 L 12.34375 -10.609375 C 12.363281 -10.503906 12.394531 -10.382812 12.4375 -10.25 C 12.488281 -10.125 12.515625 -10.003906 12.515625 -9.890625 C 12.515625 -9.785156 12.484375 -9.734375 12.421875 -9.734375 C 12.328125 -9.734375 12.25 -9.789062 12.1875 -9.90625 C 11.976562 -10.25 11.703125 -10.546875 11.359375 -10.796875 C 11.015625 -11.046875 10.628906 -11.257812 10.203125 -11.4375 C 9.785156 -11.613281 9.335938 -11.742188 8.859375 -11.828125 C 8.390625 -11.910156 7.929688 -11.953125 7.484375 -11.953125 L 3.90625 -11.953125 L 3.90625 -6.796875 L 7.5 -6.796875 C 7.851562 -6.796875 8.191406 -6.832031 8.515625 -6.90625 C 8.835938 -6.988281 9.128906 -7.09375 9.390625 -7.21875 C 9.660156 -7.351562 9.882812 -7.507812 10.0625 -7.6875 C 10.25 -7.875 10.375 -8.066406 10.4375 -8.265625 C 10.476562 -8.378906 10.53125 -8.4375 10.59375 -8.4375 C 10.644531 -8.4375 10.671875 -8.335938 10.671875 -8.140625 L 10.671875 -4.9375 C 10.671875 -4.769531 10.660156 -4.660156 10.640625 -4.609375 C 10.628906 -4.554688 10.613281 -4.53125 10.59375 -4.53125 C 10.550781 -4.53125 10.519531 -4.554688 10.5 -4.609375 C 10.488281 -4.671875 10.46875 -4.734375 10.4375 -4.796875 C 10.289062 -5.160156 10.09375 -5.441406 9.84375 -5.640625 C 9.59375 -5.847656 9.304688 -6 8.984375 -6.09375 C 8.660156 -6.1875 8.316406 -6.242188 7.953125 -6.265625 C 7.597656 -6.296875 7.253906 -6.3125 6.921875 -6.3125 L 3.90625 -6.3125 L 3.90625 -2.21875 C 3.90625 -1.5 4.039062 -1.03125 4.3125 -0.8125 C 4.582031 -0.59375 5.050781 -0.484375 5.71875 -0.484375 L 7.90625 -0.484375 C 8.320312 -0.484375 8.757812 -0.535156 9.21875 -0.640625 C 9.675781 -0.753906 10.132812 -0.90625 10.59375 -1.09375 C 11.050781 -1.28125 11.484375 -1.503906 11.890625 -1.765625 C 12.304688 -2.023438 12.671875 -2.304688 12.984375 -2.609375 C 13.097656 -2.710938 13.207031 -2.804688 13.3125 -2.890625 C 13.414062 -2.972656 13.484375 -3.015625 13.515625 -3.015625 C 13.546875 -3.015625 13.5625 -2.992188 13.5625 -2.953125 Z M 13.5625 -2.953125 "/></g></g></g><g fill="#000000" fill-opacity="1"><g transform="translate(63.4496, 19.82931)"><g><path d="M 14.03125 -3.296875 C 14.03125 -2.734375 13.890625 -2.253906 13.609375 -1.859375 C 13.335938 -1.460938 12.988281 -1.132812 12.5625 -0.875 C 12.144531 -0.625 11.679688 -0.429688 11.171875 -0.296875 C 10.671875 -0.171875 10.191406 -0.0820312 9.734375 -0.03125 C 9.359375 0 8.984375 0.0234375 8.609375 0.046875 C 8.234375 0.0664062 7.914062 0.078125 7.65625 0.078125 C 7.4375 0.078125 7.007812 0.0625 6.375 0.03125 C 5.75 0.0078125 5.007812 0 4.15625 0 L 1.59375 0 C 1.394531 0 1.226562 0.00390625 1.09375 0.015625 C 0.96875 0.0234375 0.832031 0.03125 0.6875 0.03125 C 0.457031 0.03125 0.3125 0.0234375 0.25 0.015625 C 0.1875 0.00390625 0.15625 -0.0078125 0.15625 -0.03125 C 0.15625 -0.101562 0.1875 -0.144531 0.25 -0.15625 C 0.3125 -0.164062 0.394531 -0.1875 0.5 -0.21875 C 0.914062 -0.332031 1.226562 -0.539062 1.4375 -0.84375 C 1.644531 -1.144531 1.75 -1.601562 1.75 -2.21875 L 1.75 -10.265625 C 1.75 -10.804688 1.710938 -11.21875 1.640625 -11.5 C 1.566406 -11.789062 1.34375 -12.007812 0.96875 -12.15625 C 0.875 -12.1875 0.796875 -12.210938 0.734375 -12.234375 C 0.679688 -12.253906 0.65625 -12.289062 0.65625 -12.34375 C 0.65625 -12.382812 0.703125 -12.410156 0.796875 -12.421875 C 0.890625 -12.429688 0.988281 -12.4375 1.09375 -12.4375 L 7.78125 -12.4375 C 8.238281 -12.4375 8.757812 -12.394531 9.34375 -12.3125 C 9.925781 -12.238281 10.476562 -12.101562 11 -11.90625 C 11.53125 -11.707031 11.972656 -11.425781 12.328125 -11.0625 C 12.691406 -10.695312 12.875 -10.226562 12.875 -9.65625 C 12.875 -9.113281 12.734375 -8.664062 12.453125 -8.3125 C 12.179688 -7.957031 11.832031 -7.671875 11.40625 -7.453125 C 10.988281 -7.242188 10.535156 -7.085938 10.046875 -6.984375 C 9.566406 -6.890625 9.113281 -6.820312 8.6875 -6.78125 L 8.6875 -6.75 C 9.21875 -6.726562 9.789062 -6.660156 10.40625 -6.546875 C 11.03125 -6.429688 11.609375 -6.242188 12.140625 -5.984375 C 12.679688 -5.722656 13.128906 -5.375 13.484375 -4.9375 C 13.847656 -4.5 14.03125 -3.953125 14.03125 -3.296875 Z M 10.421875 -9.578125 C 10.421875 -10.273438 10.144531 -10.84375 9.59375 -11.28125 C 9.039062 -11.726562 8.238281 -11.953125 7.1875 -11.953125 L 4 -11.953125 L 4 -6.953125 L 6.421875 -6.953125 C 7.785156 -6.953125 8.789062 -7.1875 9.4375 -7.65625 C 10.09375 -8.132812 10.421875 -8.773438 10.421875 -9.578125 Z M 11.421875 -3.515625 C 11.421875 -4.097656 11.28125 -4.582031 11 -4.96875 C 10.71875 -5.351562 10.363281 -5.65625 9.9375 -5.875 C 9.519531 -6.09375 9.070312 -6.242188 8.59375 -6.328125 C 8.125 -6.421875 7.703125 -6.46875 7.328125 -6.46875 L 4 -6.46875 L 4 -2.84375 C 4 -2.363281 4.007812 -1.96875 4.03125 -1.65625 C 4.0625 -1.351562 4.125 -1.113281 4.21875 -0.9375 C 4.320312 -0.769531 4.460938 -0.648438 4.640625 -0.578125 C 4.828125 -0.515625 5.078125 -0.484375 5.390625 -0.484375 L 8.109375 -0.484375 C 9.117188 -0.484375 9.921875 -0.722656 10.515625 -1.203125 C 11.117188 -1.679688 11.421875 -2.453125 11.421875 -3.515625 Z M 11.421875 -3.515625 "/></g></g></g><g fill="#000000" fill-opacity="1"><g transform="translate(78.203087, 19.82931)"><g><path d="M 15.15625 -0.03125 C 15.15625 0.03125 15.066406 0.0625 14.890625 0.0625 C 14.828125 0.0625 14.585938 0.0507812 14.171875 0.03125 C 13.765625 0.0078125 13.28125 0 12.71875 0 C 11.90625 0 11.320312 0.0078125 10.96875 0.03125 C 10.625 0.0507812 10.421875 0.0625 10.359375 0.0625 C 10.234375 0.0625 10.171875 0.0390625 10.171875 0 C 10.171875 -0.0625 10.253906 -0.113281 10.421875 -0.15625 C 10.640625 -0.226562 10.785156 -0.351562 10.859375 -0.53125 C 10.929688 -0.707031 10.96875 -0.921875 10.96875 -1.171875 C 10.96875 -1.347656 10.875 -1.644531 10.6875 -2.0625 C 10.507812 -2.476562 10.3125 -2.914062 10.09375 -3.375 L 8.984375 -5.671875 L 4.359375 -5.671875 L 3.296875 -3.640625 C 3.117188 -3.296875 2.960938 -2.9375 2.828125 -2.5625 C 2.691406 -2.195312 2.625 -1.816406 2.625 -1.421875 C 2.625 -1.003906 2.734375 -0.71875 2.953125 -0.5625 C 3.171875 -0.40625 3.410156 -0.273438 3.671875 -0.171875 C 3.816406 -0.128906 3.890625 -0.0820312 3.890625 -0.03125 C 3.890625 0.03125 3.8125 0.0625 3.65625 0.0625 C 3.59375 0.0625 3.394531 0.0507812 3.0625 0.03125 C 2.726562 0.0078125 2.289062 0 1.75 0 C 1.363281 0 1.039062 0.0078125 0.78125 0.03125 C 0.53125 0.0507812 0.347656 0.0625 0.234375 0.0625 C 0.0664062 0.0625 -0.015625 0.03125 -0.015625 -0.03125 C -0.015625 -0.101562 0.0234375 -0.160156 0.109375 -0.203125 C 0.203125 -0.242188 0.28125 -0.289062 0.34375 -0.34375 C 0.539062 -0.5 0.75 -0.707031 0.96875 -0.96875 C 1.1875 -1.226562 1.398438 -1.503906 1.609375 -1.796875 C 1.816406 -2.085938 2.007812 -2.378906 2.1875 -2.671875 C 2.363281 -2.960938 2.503906 -3.210938 2.609375 -3.421875 L 7.359375 -12.671875 C 7.429688 -12.773438 7.476562 -12.828125 7.5 -12.828125 L 7.546875 -12.828125 C 7.597656 -12.828125 7.648438 -12.773438 7.703125 -12.671875 L 13.40625 -1.984375 C 13.582031 -1.679688 13.769531 -1.390625 13.96875 -1.109375 C 14.164062 -0.835938 14.414062 -0.59375 14.71875 -0.375 C 14.820312 -0.289062 14.921875 -0.222656 15.015625 -0.171875 C 15.109375 -0.128906 15.15625 -0.0820312 15.15625 -0.03125 Z M 6.640625 -10.203125 L 4.609375 -6.15625 L 8.734375 -6.15625 Z M 6.640625 -10.203125 "/></g></g></g><g fill="#000000" fill-opacity="1"><g transform="translate(93.325889, 19.82931)"><g><path d="M 14.5625 -12.4375 C 14.5625 -12.382812 14.453125 -12.300781 14.234375 -12.1875 C 13.992188 -12.070312 13.800781 -11.898438 13.65625 -11.671875 C 13.507812 -11.453125 13.390625 -11.195312 13.296875 -10.90625 C 13.210938 -10.625 13.15625 -10.316406 13.125 -9.984375 C 13.09375 -9.648438 13.078125 -9.316406 13.078125 -8.984375 L 13.078125 0.140625 C 13.078125 0.203125 13.0625 0.265625 13.03125 0.328125 C 13.007812 0.390625 12.984375 0.421875 12.953125 0.421875 C 12.878906 0.421875 12.8125 0.382812 12.75 0.3125 C 12.6875 0.25 12.613281 0.171875 12.53125 0.078125 L 2.296875 -11.09375 L 2.296875 -3.453125 C 2.296875 -3.117188 2.3125 -2.789062 2.34375 -2.46875 C 2.375 -2.144531 2.441406 -1.835938 2.546875 -1.546875 C 2.660156 -1.253906 2.8125 -0.988281 3 -0.75 C 3.195312 -0.519531 3.453125 -0.332031 3.765625 -0.1875 C 3.835938 -0.164062 3.894531 -0.144531 3.9375 -0.125 C 3.976562 -0.113281 4 -0.0976562 4 -0.078125 C 4 -0.046875 3.96875 -0.0234375 3.90625 -0.015625 C 3.851562 -0.00390625 3.742188 0 3.578125 0 L 0.3125 0 C 0.195312 0 0.140625 -0.0078125 0.140625 -0.03125 C 0.140625 -0.0820312 0.179688 -0.109375 0.265625 -0.109375 C 0.597656 -0.265625 0.863281 -0.46875 1.0625 -0.71875 C 1.257812 -0.96875 1.410156 -1.238281 1.515625 -1.53125 C 1.628906 -1.832031 1.707031 -2.144531 1.75 -2.46875 C 1.789062 -2.800781 1.8125 -3.128906 1.8125 -3.453125 L 1.8125 -8.90625 C 1.8125 -9.519531 1.785156 -10.023438 1.734375 -10.421875 C 1.691406 -10.816406 1.628906 -11.128906 1.546875 -11.359375 C 1.472656 -11.585938 1.378906 -11.753906 1.265625 -11.859375 C 1.148438 -11.972656 1.019531 -12.0625 0.875 -12.125 C 0.644531 -12.226562 0.53125 -12.300781 0.53125 -12.34375 C 0.53125 -12.40625 0.625 -12.4375 0.8125 -12.4375 L 4.046875 -12.4375 L 12.59375 -3.71875 L 12.59375 -8.359375 C 12.59375 -8.804688 12.578125 -9.234375 12.546875 -9.640625 C 12.515625 -10.054688 12.441406 -10.429688 12.328125 -10.765625 C 12.222656 -11.109375 12.070312 -11.40625 11.875 -11.65625 C 11.675781 -11.914062 11.410156 -12.117188 11.078125 -12.265625 C 10.972656 -12.304688 10.921875 -12.359375 10.921875 -12.421875 C 10.921875 -12.484375 11.003906 -12.515625 11.171875 -12.515625 L 14.359375 -12.515625 C 14.492188 -12.515625 14.5625 -12.488281 14.5625 -12.4375 Z M 14.5625 -12.4375 "/></g></g></g><g fill="#000000" fill-opacity="1"><g transform="translate(108.079376, 19.82931)"><g><path d="M 15.4375 -6.21875 C 15.4375 -5.21875 15.226562 -4.3125 14.8125 -3.5 C 14.40625 -2.6875 13.863281 -1.988281 13.1875 -1.40625 C 12.507812 -0.832031 11.726562 -0.390625 10.84375 -0.078125 C 9.96875 0.234375 9.050781 0.390625 8.09375 0.390625 C 7.144531 0.390625 6.222656 0.234375 5.328125 -0.078125 C 4.441406 -0.390625 3.660156 -0.832031 2.984375 -1.40625 C 2.304688 -1.988281 1.757812 -2.6875 1.34375 -3.5 C 0.9375 -4.3125 0.734375 -5.21875 0.734375 -6.21875 C 0.734375 -7.21875 0.9375 -8.125 1.34375 -8.9375 C 1.757812 -9.757812 2.304688 -10.457031 2.984375 -11.03125 C 3.660156 -11.601562 4.441406 -12.046875 5.328125 -12.359375 C 6.222656 -12.671875 7.144531 -12.828125 8.09375 -12.828125 C 9.050781 -12.828125 9.96875 -12.671875 10.84375 -12.359375 C 11.726562 -12.046875 12.507812 -11.601562 13.1875 -11.03125 C 13.863281 -10.457031 14.40625 -9.757812 14.8125 -8.9375 C 15.226562 -8.125 15.4375 -7.21875 15.4375 -6.21875 Z M 12.828125 -6.21875 C 12.828125 -6.945312 12.742188 -7.671875 12.578125 -8.390625 C 12.421875 -9.117188 12.15625 -9.773438 11.78125 -10.359375 C 11.414062 -10.941406 10.925781 -11.414062 10.3125 -11.78125 C 9.707031 -12.15625 8.96875 -12.34375 8.09375 -12.34375 C 7.207031 -12.34375 6.457031 -12.15625 5.84375 -11.78125 C 5.238281 -11.414062 4.75 -10.941406 4.375 -10.359375 C 4.007812 -9.773438 3.742188 -9.117188 3.578125 -8.390625 C 3.421875 -7.671875 3.34375 -6.945312 3.34375 -6.21875 C 3.34375 -5.488281 3.421875 -4.757812 3.578125 -4.03125 C 3.742188 -3.3125 4.007812 -2.660156 4.375 -2.078125 C 4.75 -1.492188 5.238281 -1.015625 5.84375 -0.640625 C 6.457031 -0.273438 7.207031 -0.09375 8.09375 -0.09375 C 8.96875 -0.09375 9.707031 -0.273438 10.3125 -0.640625 C 10.925781 -1.015625 11.414062 -1.492188 11.78125 -2.078125 C 12.15625 -2.660156 12.421875 -3.3125 12.578125 -4.03125 C 12.742188 -4.757812 12.828125 -5.488281 12.828125 -6.21875 Z M 12.828125 -6.21875 "/></g></g></g><g fill="#000000" fill-opacity="1"><g transform="translate(124.271274, 19.82931)"><g><path d="M 12.40625 -4.0625 C 12.40625 -3.207031 12.207031 -2.492188 11.8125 -1.921875 C 11.414062 -1.347656 10.90625 -0.890625 10.28125 -0.546875 C 9.65625 -0.203125 8.96875 0.0351562 8.21875 0.171875 C 7.46875 0.316406 6.742188 0.390625 6.046875 0.390625 C 5.472656 0.390625 4.953125 0.363281 4.484375 0.3125 C 4.023438 0.269531 3.578125 0.203125 3.140625 0.109375 C 2.710938 0.015625 2.273438 -0.101562 1.828125 -0.25 C 1.390625 -0.394531 0.90625 -0.566406 0.375 -0.765625 L 0.984375 -3.078125 C 1.035156 -3.253906 1.070312 -3.367188 1.09375 -3.421875 C 1.113281 -3.472656 1.148438 -3.5 1.203125 -3.5 C 1.265625 -3.5 1.3125 -3.414062 1.34375 -3.25 C 1.40625 -2.769531 1.59375 -2.332031 1.90625 -1.9375 C 2.226562 -1.550781 2.609375 -1.222656 3.046875 -0.953125 C 3.492188 -0.679688 3.972656 -0.46875 4.484375 -0.3125 C 4.992188 -0.164062 5.46875 -0.09375 5.90625 -0.09375 C 6.375 -0.09375 6.863281 -0.128906 7.375 -0.203125 C 7.882812 -0.285156 8.347656 -0.429688 8.765625 -0.640625 C 9.191406 -0.847656 9.539062 -1.140625 9.8125 -1.515625 C 10.082031 -1.890625 10.21875 -2.367188 10.21875 -2.953125 C 10.21875 -3.492188 10.097656 -3.914062 9.859375 -4.21875 C 9.617188 -4.519531 9.3125 -4.742188 8.9375 -4.890625 C 8.570312 -5.035156 8.171875 -5.132812 7.734375 -5.1875 C 7.296875 -5.25 6.875 -5.304688 6.46875 -5.359375 C 5.945312 -5.441406 5.367188 -5.539062 4.734375 -5.65625 C 4.109375 -5.769531 3.519531 -5.945312 2.96875 -6.1875 C 2.414062 -6.4375 1.953125 -6.769531 1.578125 -7.1875 C 1.203125 -7.613281 1.015625 -8.171875 1.015625 -8.859375 C 1.015625 -9.660156 1.191406 -10.316406 1.546875 -10.828125 C 1.898438 -11.347656 2.351562 -11.753906 2.90625 -12.046875 C 3.46875 -12.335938 4.09375 -12.539062 4.78125 -12.65625 C 5.46875 -12.769531 6.140625 -12.828125 6.796875 -12.828125 C 7.660156 -12.828125 8.503906 -12.757812 9.328125 -12.625 C 10.160156 -12.5 10.976562 -12.289062 11.78125 -12 L 11.234375 -10.125 C 11.179688 -9.96875 11.140625 -9.859375 11.109375 -9.796875 C 11.085938 -9.742188 11.066406 -9.71875 11.046875 -9.71875 C 11.015625 -9.71875 10.976562 -9.753906 10.9375 -9.828125 C 10.820312 -10.171875 10.65625 -10.492188 10.4375 -10.796875 C 10.21875 -11.097656 9.9375 -11.363281 9.59375 -11.59375 C 9.257812 -11.820312 8.863281 -12.003906 8.40625 -12.140625 C 7.945312 -12.273438 7.421875 -12.34375 6.828125 -12.34375 C 6.429688 -12.34375 6.019531 -12.3125 5.59375 -12.25 C 5.164062 -12.195312 4.773438 -12.085938 4.421875 -11.921875 C 4.066406 -11.765625 3.769531 -11.53125 3.53125 -11.21875 C 3.300781 -10.914062 3.1875 -10.519531 3.1875 -10.03125 C 3.1875 -9.445312 3.316406 -8.992188 3.578125 -8.671875 C 3.847656 -8.359375 4.21875 -8.117188 4.6875 -7.953125 C 5.15625 -7.796875 5.707031 -7.679688 6.34375 -7.609375 C 6.976562 -7.535156 7.660156 -7.445312 8.390625 -7.34375 C 9.265625 -7.226562 9.960938 -7.050781 10.484375 -6.8125 C 11.015625 -6.570312 11.421875 -6.300781 11.703125 -6 C 11.984375 -5.695312 12.171875 -5.375 12.265625 -5.03125 C 12.359375 -4.695312 12.40625 -4.375 12.40625 -4.0625 Z M 12.40625 -4.0625 "/></g></g></g></svg>