<svg xmlns="http://www.w3.org/2000/svg" version="1.2" viewBox="0 0 224.88 75"><g style="fill:#000;fill-opacity:1"><path d="M27.89-6.078a.7.7 0 0 1-.015.14 2.053 2.053 0 0 1-.063.188L26.063 0H1.72C1.269 0 .957-.008.78-.031.601-.063.516-.101.516-.156c0-.051.148-.13.453-.235.312-.113.535-.238.672-.375.375-.289.671-.586.89-.89.227-.313.41-.688.547-1.125.133-.438.219-.969.25-1.594.04-.625.063-1.39.063-2.297v-13.594c0-1.3-.094-2.359-.282-3.172-.18-.812-.668-1.328-1.468-1.546l-.454-.172c-.156-.07-.234-.133-.234-.188 0-.07.05-.129.156-.172.114-.039.317-.062.61-.062h22.578l1.078 3.75c.05.219.125.465.219.734.093.262.14.512.14.75 0 .211-.062.313-.187.313-.188 0-.352-.117-.485-.36a6.613 6.613 0 0 0-1.703-1.812c-.71-.52-1.496-.957-2.359-1.313a12.707 12.707 0 0 0-2.766-.797 15.928 15.928 0 0 0-2.843-.265H8.03v10.594h7.39c.72 0 1.411-.079 2.079-.235a9.317 9.317 0 0 0 1.813-.64 5.148 5.148 0 0 0 1.39-.97c.375-.374.629-.757.766-1.155.07-.239.176-.36.312-.36.102 0 .157.2.157.594v6.594c0 .355-.016.586-.047.687-.024.106-.059.156-.11.156-.086 0-.148-.054-.187-.171a3.73 3.73 0 0 0-.125-.391c-.293-.738-.7-1.316-1.219-1.734a5.297 5.297 0 0 0-1.781-.922 10.175 10.175 0 0 0-2.11-.375c-.73-.051-1.437-.078-2.125-.078H8.031v8.421c0 1.47.281 2.434.844 2.891.563.45 1.52.672 2.875.672h4.516c.851 0 1.754-.11 2.703-.328a18.408 18.408 0 0 0 5.484-2.313 13.971 13.971 0 0 0 2.25-1.718c.238-.207.461-.395.672-.563.219-.176.352-.266.406-.266.07 0 .11.04.11.11Zm0 0" style="stroke:none" transform="translate(21.774 51.958)"/></g><g style="fill:#000;fill-opacity:1"><path d="M28.86-6.797c0 1.18-.29 2.172-.86 2.984a7.086 7.086 0 0 1-2.156 2c-.867.512-1.82.903-2.86 1.172-1.043.274-2.027.461-2.953.563a36.5 36.5 0 0 1-2.328.172c-.773.039-1.422.062-1.953.062-.46 0-1.336-.027-2.625-.078C11.832.023 10.305 0 8.547 0H3.28c-.406 0-.746.008-1.015.031a7.262 7.262 0 0 1-.86.047C.946.078.648.063.516.031.379.008.312-.023.312-.079c0-.132.067-.21.204-.233.132-.032.312-.07.53-.126.845-.238 1.477-.671 1.907-1.296.426-.625.64-1.567.64-2.829v-16.546c0-1.114-.073-1.961-.218-2.547-.148-.594-.605-1.035-1.375-1.328a19.78 19.78 0 0 0-.469-.172c-.117-.04-.172-.114-.172-.219 0-.082.094-.133.282-.156.187-.032.382-.047.593-.047h13.75c.957 0 2.036.086 3.235.25 1.207.156 2.347.445 3.422.86 1.082.405 1.988.984 2.718 1.734.727.742 1.094 1.699 1.094 2.875 0 1.117-.281 2.043-.844 2.78a6.06 6.06 0 0 1-2.125 1.75c-.867.438-1.797.763-2.797.97-1 .199-1.945.336-2.828.406v.078c1.094.031 2.282.168 3.563.406 1.281.242 2.469.625 3.562 1.156a8.045 8.045 0 0 1 2.75 2.157c.75.906 1.125 2.027 1.125 3.36Zm-7.438-12.906c0-1.438-.57-2.61-1.703-3.516-1.125-.906-2.774-1.36-4.938-1.36H8.234v10.267h4.954c2.82 0 4.898-.485 6.234-1.454 1.332-.968 2-2.28 2-3.937ZM23.5-7.234c0-1.196-.293-2.188-.875-2.97a6.242 6.242 0 0 0-2.188-1.858 9.894 9.894 0 0 0-2.75-.97c-.968-.187-1.843-.28-2.625-.28H8.235v7.484c0 .98.024 1.781.079 2.406.05.625.175 1.121.374 1.485.208.355.493.601.86.734.375.137.883.203 1.531.203h5.594c2.07 0 3.726-.488 4.969-1.469 1.238-.988 1.859-2.578 1.859-4.765Zm0 0" style="stroke:none" transform="translate(50.635 51.958)"/></g><g style="fill:#000;fill-opacity:1"><path d="M31.172-.078c0 .133-.188.203-.563.203-.125 0-.609-.023-1.453-.063A60.77 60.77 0 0 0 26.141 0c-1.657 0-2.844.02-3.563.063-.719.039-1.148.062-1.281.062-.262 0-.39-.043-.39-.125 0-.133.171-.238.515-.313.457-.164.758-.425.906-.78.145-.364.219-.798.219-1.298 0-.375-.188-.988-.563-1.843a157.86 157.86 0 0 0-1.234-2.72l-2.281-4.718H8.953L6.797-7.469a16.586 16.586 0 0 0-.984 2.172 6.808 6.808 0 0 0-.422 2.375c0 .856.222 1.445.671 1.766.458.324.954.59 1.485.797.3.086.453.18.453.28 0 .134-.164.204-.484.204-.137 0-.543-.023-1.22-.063A45.079 45.079 0 0 0 3.595 0c-.805 0-1.465.02-1.985.063C1.098.102.723.124.484.124c-.355 0-.53-.07-.53-.203s.093-.25.28-.344C.422-.516.582-.613.72-.719c.394-.32.816-.75 1.265-1.281.457-.531.899-1.094 1.329-1.688.425-.601.816-1.203 1.171-1.796.364-.602.657-1.118.875-1.547l9.782-19.032c.132-.207.226-.312.28-.312h.095c.101 0 .207.105.312.313l11.75 21.984c.344.617.723 1.21 1.14 1.781A6.942 6.942 0 0 0 30.25-.766c.219.168.426.297.625.391.195.094.297.195.297.297Zm-17.5-20.906-4.203 8.312h8.484Zm0 0" style="stroke:none" transform="translate(80.976 51.958)"/></g><g style="fill:#000;fill-opacity:1"><path d="M29.938-25.578c0 .105-.231.277-.688.515-.48.243-.871.59-1.172 1.047-.305.45-.543.977-.719 1.578A9.64 9.64 0 0 0 27-20.515a22.3 22.3 0 0 0-.094 2.047V.281a.87.87 0 0 1-.093.39c-.055.134-.118.204-.188.204-.137 0-.273-.074-.406-.219a13.319 13.319 0 0 1-.438-.5L4.72-22.828V-7.11c0 .687.031 1.367.093 2.03.07.669.22 1.306.438 1.907.227.594.54 1.133.938 1.61.406.48.925.867 1.562 1.156.133.062.25.11.344.14.094.024.14.059.14.11 0 .054-.062.093-.187.125C7.93-.008 7.703 0 7.359 0H.641C.398 0 .28-.023.28-.078c0-.102.094-.156.281-.156.665-.32 1.204-.735 1.61-1.235.414-.508.738-1.07.969-1.687a8.103 8.103 0 0 0 .453-1.938c.082-.676.125-1.347.125-2.015v-11.204c0-1.269-.047-2.312-.14-3.125-.095-.812-.227-1.453-.392-1.921-.156-.47-.355-.813-.593-1.032a3.114 3.114 0 0 0-.797-.547c-.48-.218-.719-.363-.719-.437 0-.133.195-.203.594-.203h6.64L25.907-7.641v-9.546c0-.926-.039-1.813-.11-2.657a9.592 9.592 0 0 0-.437-2.297 6.502 6.502 0 0 0-.937-1.843c-.399-.532-.945-.942-1.64-1.235-.212-.082-.313-.191-.313-.328 0-.125.172-.187.515-.187h6.547c.27 0 .407.054.407.156Zm0 0" style="stroke:none" transform="translate(112.076 51.958)"/></g><g style="fill:#000;fill-opacity:1"><path d="M31.734-12.797c0 2.055-.422 3.922-1.265 5.61a13.32 13.32 0 0 1-3.36 4.296c-1.398 1.18-3 2.09-4.812 2.735a17.086 17.086 0 0 1-5.672.953c-1.95 0-3.836-.32-5.656-.953C9.145-.801 7.53-1.711 6.125-2.891a13.536 13.536 0 0 1-3.36-4.296c-.835-1.688-1.25-3.555-1.25-5.61 0-2.05.415-3.914 1.25-5.594a13.431 13.431 0 0 1 3.36-4.28c1.406-1.188 3.02-2.099 4.844-2.735a16.83 16.83 0 0 1 5.656-.969c1.969 0 3.86.324 5.672.969 1.812.636 3.414 1.547 4.812 2.734a13.217 13.217 0 0 1 3.36 4.281c.843 1.68 1.265 3.543 1.265 5.594Zm-5.359 0c0-1.488-.168-2.976-.5-4.469-.336-1.488-.883-2.832-1.64-4.03a8.793 8.793 0 0 0-3.016-2.938c-1.25-.758-2.782-1.141-4.594-1.141-1.813 0-3.344.383-4.594 1.14a8.932 8.932 0 0 0-3.015 2.938c-.762 1.2-1.309 2.543-1.641 4.031a20.276 20.276 0 0 0 0 8.953c.332 1.493.879 2.836 1.64 4.032a9.08 9.08 0 0 0 3.016 2.937c1.25.762 2.781 1.14 4.594 1.14 1.813 0 3.344-.378 4.594-1.14 1.258-.758 2.265-1.738 3.015-2.937.758-1.196 1.305-2.54 1.641-4.032.332-1.488.5-2.984.5-4.484Zm0 0" style="stroke:none" transform="translate(142.417 51.958)"/></g><g style="fill:#000;fill-opacity:1"><path d="M25.5-8.36c0 1.762-.406 3.231-1.219 4.407a9.153 9.153 0 0 1-3.14 2.812C19.859-.43 18.445.066 16.906.36c-1.543.29-3.031.438-4.468.438-1.18 0-2.247-.047-3.204-.14A23.24 23.24 0 0 1 6.47.218c-.875-.2-1.778-.442-2.703-.735-.918-.289-1.918-.64-3-1.046l1.265-4.75c.114-.375.188-.614.219-.72.04-.1.117-.155.234-.155.125 0 .22.171.282.515C2.89-5.692 3.28-4.8 3.937-4a9.37 9.37 0 0 0 2.344 2.047A12.26 12.26 0 0 0 9.22-.656c1.05.304 2.031.453 2.937.453.957 0 1.961-.078 3.016-.234 1.05-.157 2.008-.446 2.875-.875a5.75 5.75 0 0 0 2.14-1.797c.563-.782.844-1.77.844-2.97 0-1.112-.25-1.976-.75-2.593a4.515 4.515 0 0 0-1.875-1.375 9.9 9.9 0 0 0-2.5-.64 282.55 282.55 0 0 0-2.594-.344 91.28 91.28 0 0 1-3.562-.594 15.694 15.694 0 0 1-3.656-1.125c-1.137-.508-2.09-1.195-2.86-2.063-.773-.863-1.156-2-1.156-3.406 0-1.656.363-3.008 1.094-4.062A7.766 7.766 0 0 1 6-24.75c1.145-.602 2.422-1.023 3.828-1.266 1.414-.238 2.8-.359 4.156-.359 1.758 0 3.493.137 5.204.406 1.707.262 3.382.7 5.03 1.313l-1.109 3.828c-.117.324-.199.547-.25.672-.054.117-.105.172-.156.172-.055 0-.121-.078-.203-.235a7.57 7.57 0 0 0-1.047-1.984 6.701 6.701 0 0 0-1.719-1.64c-.687-.47-1.507-.837-2.453-1.11-.937-.281-2.023-.422-3.25-.422-.804 0-1.648.063-2.531.188-.875.117-1.68.34-2.406.671a4.714 4.714 0 0 0-1.813 1.438c-.48.625-.718 1.445-.718 2.453 0 1.2.269 2.125.812 2.781.54.657 1.29 1.153 2.25 1.485.969.324 2.102.562 3.406.718 1.301.149 2.711.325 4.235.532 1.78.242 3.21.609 4.297 1.109 1.082.492 1.914 1.047 2.5 1.672.582.625.968 1.289 1.156 1.984a7.55 7.55 0 0 1 .281 1.985Zm0 0" style="stroke:none" transform="translate(175.716 51.958)"/></g></svg>