<svg xmlns="http://www.w3.org/2000/svg" width="24" height="24" viewBox="0 0 16 16"><g fill="none"><path fill="url(#fluentColorShield160)" d="M7.647 2.146a.5.5 0 0 1 .708 0C9.595 3.39 10.969 4 12.5 4a.5.5 0 0 1 .5.5v3.001c0 3.219-1.641 5.407-4.842 6.473a.5.5 0 0 1-.316 0C4.642 12.908 3 10.72 3 7.501V4.5a.5.5 0 0 1 .5-.5c1.53 0 2.904-.611 4.147-1.854"/><defs><radialGradient id="fluentColorShield160" cx="0" cy="0" r="1" gradientTransform="matrix(15.35727 23.24988 -19.97817 13.1962 -.929 -4.75)" gradientUnits="userSpaceOnUse"><stop offset=".338" stop-color="#0fafff"/><stop offset=".529" stop-color="#367af2"/><stop offset=".682" stop-color="#5750e2"/><stop offset=".861" stop-color="#cc23d1"/></radialGradient></defs></g></svg>